<svg xmlns="http://www.w3.org/2000/svg" viewBox="0 0 864 480" width="864" height="480">
<rect x="482" y="117" width="1" height="1" fill="#000000"/>
<rect x="484" y="117" width="12" height="1" fill="#000000"/>
<rect x="503" y="117" width="4" height="1" fill="#000000"/>
<rect x="509" y="117" width="12" height="1" fill="#000000"/>
<rect x="523" y="117" width="3" height="1" fill="#000000"/>
<rect x="538" y="117" width="20" height="1" fill="#000000"/>
<rect x="564" y="117" width="4" height="1" fill="#000000"/>
<rect x="569" y="117" width="5" height="1" fill="#000000"/>
<rect x="579" y="117" width="2" height="1" fill="#000000"/>
<rect x="582" y="117" width="1" height="1" fill="#000000"/>
<rect x="585" y="117" width="1" height="1" fill="#000000"/>
<rect x="604" y="118" width="1" height="1" fill="#000000"/>
<rect x="605" y="120" width="1" height="1" fill="#000000"/>
<rect x="605" y="121" width="1" height="1" fill="#000000"/>
<rect x="481" y="122" width="1" height="1" fill="#000000"/>
<rect x="486" y="122" width="117" height="1" fill="#000000"/>
<rect x="605" y="122" width="1" height="1" fill="#000000"/>
<rect x="605" y="123" width="1" height="1" fill="#000000"/>
<rect x="481" y="127" width="1" height="1" fill="#000000"/>
<rect x="481" y="128" width="1" height="1" fill="#000000"/>
<rect x="481" y="129" width="1" height="1" fill="#000000"/>
<rect x="605" y="129" width="1" height="1" fill="#000000"/>
<rect x="481" y="130" width="1" height="1" fill="#000000"/>
<rect x="605" y="130" width="1" height="1" fill="#000000"/>
<rect x="481" y="131" width="1" height="1" fill="#000000"/>
<rect x="604" y="132" width="1" height="1" fill="#000000"/>
<rect x="482" y="133" width="7" height="1" fill="#000000"/>
<rect x="490" y="133" width="4" height="1" fill="#000000"/>
<rect x="495" y="133" width="1" height="1" fill="#000000"/>
<rect x="501" y="133" width="2" height="1" fill="#000000"/>
<rect x="545" y="133" width="1" height="1" fill="#000000"/>
<rect x="547" y="133" width="1" height="1" fill="#000000"/>
<rect x="552" y="133" width="2" height="1" fill="#000000"/>
<rect x="555" y="133" width="2" height="1" fill="#000000"/>
<rect x="558" y="133" width="2" height="1" fill="#000000"/>
<rect x="561" y="133" width="1" height="1" fill="#000000"/>
<rect x="564" y="133" width="1" height="1" fill="#000000"/>
<rect x="566" y="133" width="2" height="1" fill="#000000"/>
<rect x="569" y="133" width="2" height="1" fill="#000000"/>
<rect x="576" y="133" width="1" height="1" fill="#000000"/>
<rect x="585" y="133" width="1" height="1" fill="#000000"/>
<rect x="588" y="133" width="1" height="1" fill="#000000"/>
<rect x="591" y="133" width="1" height="1" fill="#000000"/>
<rect x="600" y="133" width="3" height="1" fill="#000000"/>
<rect x="474" y="140" width="7" height="1" fill="#000000"/>
<rect x="471" y="141" width="4" height="1" fill="#000000"/>
<rect x="480" y="141" width="16" height="1" fill="#000000"/>
<rect x="508" y="141" width="2" height="1" fill="#000000"/>
<rect x="518" y="141" width="85" height="1" fill="#000000"/>
<rect x="609" y="141" width="6" height="1" fill="#000000"/>
<rect x="627" y="141" width="3" height="1" fill="#000000"/>
<rect x="470" y="142" width="3" height="1" fill="#000000"/>
<rect x="608" y="142" width="10" height="1" fill="#000000"/>
<rect x="631" y="142" width="5" height="1" fill="#000000"/>
<rect x="470" y="143" width="69" height="1" fill="#000000"/>
<rect x="597" y="143" width="1" height="1" fill="#000000"/>
<rect x="470" y="144" width="12" height="1" fill="#000000"/>
<rect x="484" y="144" width="27" height="1" fill="#000000"/>
<rect x="539" y="144" width="94" height="1" fill="#000000"/>
<rect x="471" y="145" width="3" height="1" fill="#000000"/>
<rect x="483" y="117" width="1" height="1" fill="#002000"/>
<rect x="584" y="117" width="1" height="1" fill="#002000"/>
<rect x="586" y="117" width="1" height="1" fill="#002000"/>
<rect x="598" y="133" width="2" height="1" fill="#002000"/>
<rect x="558" y="117" width="1" height="1" fill="#002020"/>
<rect x="568" y="117" width="1" height="1" fill="#002020"/>
<rect x="574" y="117" width="3" height="1" fill="#002020"/>
<rect x="578" y="117" width="1" height="1" fill="#002020"/>
<rect x="587" y="117" width="1" height="1" fill="#002020"/>
<rect x="593" y="117" width="1" height="1" fill="#002020"/>
<rect x="595" y="117" width="1" height="1" fill="#002020"/>
<rect x="603" y="117" width="1" height="1" fill="#002020"/>
<rect x="493" y="118" width="1" height="1" fill="#002020"/>
<rect x="495" y="118" width="1" height="1" fill="#002020"/>
<rect x="502" y="118" width="2" height="1" fill="#002020"/>
<rect x="483" y="122" width="1" height="1" fill="#002020"/>
<rect x="605" y="128" width="1" height="1" fill="#002020"/>
<rect x="556" y="130" width="1" height="1" fill="#002020"/>
<rect x="561" y="130" width="1" height="1" fill="#002020"/>
<rect x="493" y="131" width="2" height="1" fill="#002020"/>
<rect x="556" y="131" width="1" height="1" fill="#002020"/>
<rect x="562" y="131" width="1" height="1" fill="#002020"/>
<rect x="565" y="131" width="1" height="1" fill="#002020"/>
<rect x="568" y="131" width="1" height="1" fill="#002020"/>
<rect x="571" y="131" width="1" height="1" fill="#002020"/>
<rect x="573" y="131" width="1" height="1" fill="#002020"/>
<rect x="482" y="132" width="1" height="1" fill="#002020"/>
<rect x="554" y="132" width="1" height="1" fill="#002020"/>
<rect x="558" y="132" width="1" height="1" fill="#002020"/>
<rect x="494" y="133" width="1" height="1" fill="#002020"/>
<rect x="503" y="133" width="1" height="1" fill="#002020"/>
<rect x="560" y="133" width="1" height="1" fill="#002020"/>
<rect x="562" y="133" width="1" height="1" fill="#002020"/>
<rect x="565" y="133" width="1" height="1" fill="#002020"/>
<rect x="568" y="133" width="1" height="1" fill="#002020"/>
<rect x="571" y="133" width="1" height="1" fill="#002020"/>
<rect x="574" y="133" width="2" height="1" fill="#002020"/>
<rect x="587" y="133" width="1" height="1" fill="#002020"/>
<rect x="589" y="133" width="1" height="1" fill="#002020"/>
<rect x="476" y="141" width="3" height="1" fill="#002020"/>
<rect x="474" y="142" width="2" height="1" fill="#002020"/>
<rect x="482" y="142" width="31" height="1" fill="#002020"/>
<rect x="516" y="142" width="24" height="1" fill="#002020"/>
<rect x="576" y="142" width="8" height="1" fill="#002020"/>
<rect x="603" y="142" width="3" height="1" fill="#002020"/>
<rect x="547" y="143" width="3" height="1" fill="#002020"/>
<rect x="554" y="143" width="14" height="1" fill="#002020"/>
<rect x="572" y="143" width="16" height="1" fill="#002020"/>
<rect x="590" y="143" width="2" height="1" fill="#002020"/>
<rect x="602" y="143" width="25" height="1" fill="#002020"/>
<rect x="559" y="117" width="1" height="1" fill="#000020"/>
<rect x="563" y="117" width="1" height="1" fill="#000020"/>
<rect x="577" y="117" width="1" height="1" fill="#000020"/>
<rect x="581" y="117" width="1" height="1" fill="#000020"/>
<rect x="583" y="117" width="1" height="1" fill="#000020"/>
<rect x="501" y="118" width="1" height="1" fill="#000020"/>
<rect x="509" y="118" width="1" height="1" fill="#000020"/>
<rect x="482" y="122" width="1" height="1" fill="#000020"/>
<rect x="485" y="122" width="1" height="1" fill="#000020"/>
<rect x="603" y="122" width="2" height="1" fill="#000020"/>
<rect x="605" y="127" width="1" height="1" fill="#000020"/>
<rect x="555" y="130" width="1" height="1" fill="#000020"/>
<rect x="490" y="131" width="1" height="1" fill="#000020"/>
<rect x="555" y="131" width="1" height="1" fill="#000020"/>
<rect x="557" y="131" width="1" height="1" fill="#000020"/>
<rect x="560" y="131" width="1" height="1" fill="#000020"/>
<rect x="563" y="131" width="1" height="1" fill="#000020"/>
<rect x="572" y="131" width="1" height="1" fill="#000020"/>
<rect x="575" y="131" width="1" height="1" fill="#000020"/>
<rect x="552" y="132" width="2" height="1" fill="#000020"/>
<rect x="557" y="132" width="1" height="1" fill="#000020"/>
<rect x="591" y="132" width="3" height="1" fill="#000020"/>
<rect x="596" y="132" width="1" height="1" fill="#000020"/>
<rect x="546" y="133" width="1" height="1" fill="#000020"/>
<rect x="554" y="133" width="1" height="1" fill="#000020"/>
<rect x="557" y="133" width="1" height="1" fill="#000020"/>
<rect x="563" y="133" width="1" height="1" fill="#000020"/>
<rect x="573" y="133" width="1" height="1" fill="#000020"/>
<rect x="577" y="133" width="1" height="1" fill="#000020"/>
<rect x="579" y="133" width="1" height="1" fill="#000020"/>
<rect x="475" y="141" width="1" height="1" fill="#000020"/>
<rect x="479" y="141" width="1" height="1" fill="#000020"/>
<rect x="473" y="142" width="1" height="1" fill="#000020"/>
<rect x="513" y="142" width="3" height="1" fill="#000020"/>
<rect x="606" y="142" width="2" height="1" fill="#000020"/>
<rect x="618" y="142" width="13" height="1" fill="#000020"/>
<rect x="539" y="143" width="8" height="1" fill="#000020"/>
<rect x="592" y="143" width="5" height="1" fill="#000020"/>
<rect x="598" y="143" width="4" height="1" fill="#000020"/>
<rect x="627" y="143" width="9" height="1" fill="#000020"/>
<rect x="482" y="144" width="2" height="1" fill="#000020"/>
<rect x="560" y="117" width="3" height="1" fill="#202020"/>
<rect x="588" y="117" width="5" height="1" fill="#202020"/>
<rect x="594" y="117" width="1" height="1" fill="#202020"/>
<rect x="596" y="117" width="2" height="1" fill="#202020"/>
<rect x="600" y="117" width="3" height="1" fill="#202020"/>
<rect x="482" y="118" width="1" height="1" fill="#202020"/>
<rect x="487" y="118" width="3" height="1" fill="#202020"/>
<rect x="494" y="118" width="1" height="1" fill="#202020"/>
<rect x="496" y="118" width="5" height="1" fill="#202020"/>
<rect x="504" y="118" width="2" height="1" fill="#202020"/>
<rect x="507" y="118" width="2" height="1" fill="#202020"/>
<rect x="510" y="118" width="2" height="1" fill="#202020"/>
<rect x="518" y="118" width="2" height="1" fill="#202020"/>
<rect x="521" y="118" width="7" height="1" fill="#202020"/>
<rect x="529" y="118" width="7" height="1" fill="#202020"/>
<rect x="537" y="118" width="2" height="1" fill="#202020"/>
<rect x="541" y="118" width="3" height="1" fill="#202020"/>
<rect x="546" y="118" width="1" height="1" fill="#202020"/>
<rect x="553" y="118" width="4" height="1" fill="#202020"/>
<rect x="482" y="119" width="1" height="1" fill="#202020"/>
<rect x="501" y="119" width="5" height="1" fill="#202020"/>
<rect x="507" y="119" width="3" height="1" fill="#202020"/>
<rect x="517" y="119" width="1" height="1" fill="#202020"/>
<rect x="554" y="119" width="1" height="1" fill="#202020"/>
<rect x="599" y="119" width="2" height="1" fill="#202020"/>
<rect x="604" y="119" width="1" height="1" fill="#202020"/>
<rect x="484" y="122" width="1" height="1" fill="#202020"/>
<rect x="482" y="123" width="82" height="1" fill="#202020"/>
<rect x="565" y="123" width="34" height="1" fill="#202020"/>
<rect x="603" y="123" width="2" height="1" fill="#202020"/>
<rect x="482" y="124" width="4" height="1" fill="#202020"/>
<rect x="487" y="124" width="10" height="1" fill="#202020"/>
<rect x="502" y="124" width="18" height="1" fill="#202020"/>
<rect x="521" y="124" width="1" height="1" fill="#202020"/>
<rect x="523" y="124" width="5" height="1" fill="#202020"/>
<rect x="529" y="124" width="2" height="1" fill="#202020"/>
<rect x="533" y="124" width="1" height="1" fill="#202020"/>
<rect x="535" y="124" width="3" height="1" fill="#202020"/>
<rect x="539" y="124" width="1" height="1" fill="#202020"/>
<rect x="541" y="124" width="3" height="1" fill="#202020"/>
<rect x="570" y="124" width="1" height="1" fill="#202020"/>
<rect x="595" y="124" width="4" height="1" fill="#202020"/>
<rect x="605" y="124" width="1" height="1" fill="#202020"/>
<rect x="482" y="125" width="14" height="1" fill="#202020"/>
<rect x="497" y="125" width="1" height="1" fill="#202020"/>
<rect x="505" y="125" width="12" height="1" fill="#202020"/>
<rect x="531" y="125" width="1" height="1" fill="#202020"/>
<rect x="537" y="125" width="1" height="1" fill="#202020"/>
<rect x="540" y="125" width="1" height="1" fill="#202020"/>
<rect x="543" y="125" width="2" height="1" fill="#202020"/>
<rect x="546" y="125" width="1" height="1" fill="#202020"/>
<rect x="549" y="125" width="1" height="1" fill="#202020"/>
<rect x="589" y="125" width="1" height="1" fill="#202020"/>
<rect x="591" y="125" width="8" height="1" fill="#202020"/>
<rect x="601" y="125" width="1" height="1" fill="#202020"/>
<rect x="603" y="125" width="3" height="1" fill="#202020"/>
<rect x="482" y="126" width="2" height="1" fill="#202020"/>
<rect x="486" y="126" width="4" height="1" fill="#202020"/>
<rect x="491" y="126" width="1" height="1" fill="#202020"/>
<rect x="493" y="126" width="1" height="1" fill="#202020"/>
<rect x="511" y="126" width="1" height="1" fill="#202020"/>
<rect x="605" y="126" width="1" height="1" fill="#202020"/>
<rect x="482" y="127" width="15" height="1" fill="#202020"/>
<rect x="507" y="127" width="6" height="1" fill="#202020"/>
<rect x="551" y="127" width="3" height="1" fill="#202020"/>
<rect x="592" y="127" width="8" height="1" fill="#202020"/>
<rect x="604" y="127" width="1" height="1" fill="#202020"/>
<rect x="482" y="128" width="16" height="1" fill="#202020"/>
<rect x="506" y="128" width="7" height="1" fill="#202020"/>
<rect x="551" y="128" width="3" height="1" fill="#202020"/>
<rect x="555" y="128" width="1" height="1" fill="#202020"/>
<rect x="557" y="128" width="3" height="1" fill="#202020"/>
<rect x="569" y="128" width="1" height="1" fill="#202020"/>
<rect x="571" y="128" width="9" height="1" fill="#202020"/>
<rect x="587" y="128" width="7" height="1" fill="#202020"/>
<rect x="598" y="128" width="1" height="1" fill="#202020"/>
<rect x="604" y="128" width="1" height="1" fill="#202020"/>
<rect x="482" y="129" width="1" height="1" fill="#202020"/>
<rect x="603" y="129" width="2" height="1" fill="#202020"/>
<rect x="482" y="130" width="1" height="1" fill="#202020"/>
<rect x="489" y="130" width="3" height="1" fill="#202020"/>
<rect x="493" y="130" width="2" height="1" fill="#202020"/>
<rect x="501" y="130" width="10" height="1" fill="#202020"/>
<rect x="515" y="130" width="3" height="1" fill="#202020"/>
<rect x="520" y="130" width="8" height="1" fill="#202020"/>
<rect x="536" y="130" width="8" height="1" fill="#202020"/>
<rect x="548" y="130" width="5" height="1" fill="#202020"/>
<rect x="554" y="130" width="1" height="1" fill="#202020"/>
<rect x="557" y="130" width="4" height="1" fill="#202020"/>
<rect x="562" y="130" width="14" height="1" fill="#202020"/>
<rect x="580" y="130" width="4" height="1" fill="#202020"/>
<rect x="585" y="130" width="1" height="1" fill="#202020"/>
<rect x="587" y="130" width="2" height="1" fill="#202020"/>
<rect x="594" y="130" width="9" height="1" fill="#202020"/>
<rect x="604" y="130" width="1" height="1" fill="#202020"/>
<rect x="482" y="131" width="8" height="1" fill="#202020"/>
<rect x="491" y="131" width="2" height="1" fill="#202020"/>
<rect x="495" y="131" width="1" height="1" fill="#202020"/>
<rect x="497" y="131" width="2" height="1" fill="#202020"/>
<rect x="500" y="131" width="4" height="1" fill="#202020"/>
<rect x="505" y="131" width="5" height="1" fill="#202020"/>
<rect x="511" y="131" width="1" height="1" fill="#202020"/>
<rect x="513" y="131" width="5" height="1" fill="#202020"/>
<rect x="519" y="131" width="8" height="1" fill="#202020"/>
<rect x="536" y="131" width="1" height="1" fill="#202020"/>
<rect x="538" y="131" width="2" height="1" fill="#202020"/>
<rect x="541" y="131" width="4" height="1" fill="#202020"/>
<rect x="547" y="131" width="3" height="1" fill="#202020"/>
<rect x="551" y="131" width="2" height="1" fill="#202020"/>
<rect x="554" y="131" width="1" height="1" fill="#202020"/>
<rect x="558" y="131" width="2" height="1" fill="#202020"/>
<rect x="561" y="131" width="1" height="1" fill="#202020"/>
<rect x="564" y="131" width="1" height="1" fill="#202020"/>
<rect x="566" y="131" width="2" height="1" fill="#202020"/>
<rect x="569" y="131" width="2" height="1" fill="#202020"/>
<rect x="574" y="131" width="1" height="1" fill="#202020"/>
<rect x="576" y="131" width="9" height="1" fill="#202020"/>
<rect x="586" y="131" width="2" height="1" fill="#202020"/>
<rect x="589" y="131" width="1" height="1" fill="#202020"/>
<rect x="592" y="131" width="1" height="1" fill="#202020"/>
<rect x="595" y="131" width="2" height="1" fill="#202020"/>
<rect x="599" y="131" width="1" height="1" fill="#202020"/>
<rect x="601" y="131" width="4" height="1" fill="#202020"/>
<rect x="483" y="132" width="13" height="1" fill="#202020"/>
<rect x="499" y="132" width="3" height="1" fill="#202020"/>
<rect x="503" y="132" width="7" height="1" fill="#202020"/>
<rect x="511" y="132" width="5" height="1" fill="#202020"/>
<rect x="517" y="132" width="7" height="1" fill="#202020"/>
<rect x="525" y="132" width="2" height="1" fill="#202020"/>
<rect x="536" y="132" width="1" height="1" fill="#202020"/>
<rect x="542" y="132" width="10" height="1" fill="#202020"/>
<rect x="555" y="132" width="2" height="1" fill="#202020"/>
<rect x="559" y="132" width="21" height="1" fill="#202020"/>
<rect x="583" y="132" width="5" height="1" fill="#202020"/>
<rect x="589" y="132" width="2" height="1" fill="#202020"/>
<rect x="594" y="132" width="2" height="1" fill="#202020"/>
<rect x="597" y="132" width="7" height="1" fill="#202020"/>
<rect x="572" y="133" width="1" height="1" fill="#202020"/>
<rect x="578" y="133" width="1" height="1" fill="#202020"/>
<rect x="580" y="133" width="5" height="1" fill="#202020"/>
<rect x="586" y="133" width="1" height="1" fill="#202020"/>
<rect x="590" y="133" width="1" height="1" fill="#202020"/>
<rect x="592" y="133" width="6" height="1" fill="#202020"/>
<rect x="476" y="142" width="6" height="1" fill="#202020"/>
<rect x="540" y="142" width="13" height="1" fill="#202020"/>
<rect x="564" y="142" width="12" height="1" fill="#202020"/>
<rect x="584" y="142" width="19" height="1" fill="#202020"/>
<rect x="550" y="143" width="4" height="1" fill="#202020"/>
<rect x="568" y="143" width="4" height="1" fill="#202020"/>
<rect x="588" y="143" width="2" height="1" fill="#202020"/>
<rect x="598" y="117" width="2" height="1" fill="#404040"/>
<rect x="483" y="118" width="1" height="1" fill="#404040"/>
<rect x="490" y="118" width="1" height="1" fill="#404040"/>
<rect x="492" y="118" width="1" height="1" fill="#404040"/>
<rect x="514" y="118" width="1" height="1" fill="#404040"/>
<rect x="516" y="118" width="1" height="1" fill="#404040"/>
<rect x="540" y="118" width="1" height="1" fill="#404040"/>
<rect x="544" y="118" width="1" height="1" fill="#404040"/>
<rect x="548" y="118" width="1" height="1" fill="#404040"/>
<rect x="550" y="118" width="1" height="1" fill="#404040"/>
<rect x="559" y="118" width="1" height="1" fill="#404040"/>
<rect x="561" y="118" width="1" height="1" fill="#404040"/>
<rect x="564" y="118" width="2" height="1" fill="#404040"/>
<rect x="567" y="118" width="1" height="1" fill="#404040"/>
<rect x="569" y="118" width="1" height="1" fill="#404040"/>
<rect x="572" y="118" width="2" height="1" fill="#404040"/>
<rect x="575" y="118" width="1" height="1" fill="#404040"/>
<rect x="577" y="118" width="2" height="1" fill="#404040"/>
<rect x="580" y="118" width="2" height="1" fill="#404040"/>
<rect x="584" y="118" width="4" height="1" fill="#404040"/>
<rect x="591" y="118" width="1" height="1" fill="#404040"/>
<rect x="593" y="118" width="1" height="1" fill="#404040"/>
<rect x="595" y="118" width="2" height="1" fill="#404040"/>
<rect x="599" y="118" width="2" height="1" fill="#404040"/>
<rect x="602" y="118" width="1" height="1" fill="#404040"/>
<rect x="483" y="119" width="9" height="1" fill="#404040"/>
<rect x="496" y="119" width="1" height="1" fill="#404040"/>
<rect x="498" y="119" width="1" height="1" fill="#404040"/>
<rect x="512" y="119" width="3" height="1" fill="#404040"/>
<rect x="523" y="119" width="3" height="1" fill="#404040"/>
<rect x="530" y="119" width="5" height="1" fill="#404040"/>
<rect x="536" y="119" width="1" height="1" fill="#404040"/>
<rect x="540" y="119" width="2" height="1" fill="#404040"/>
<rect x="543" y="119" width="8" height="1" fill="#404040"/>
<rect x="552" y="119" width="1" height="1" fill="#404040"/>
<rect x="555" y="119" width="2" height="1" fill="#404040"/>
<rect x="559" y="119" width="4" height="1" fill="#404040"/>
<rect x="564" y="119" width="1" height="1" fill="#404040"/>
<rect x="566" y="119" width="13" height="1" fill="#404040"/>
<rect x="582" y="119" width="1" height="1" fill="#404040"/>
<rect x="584" y="119" width="13" height="1" fill="#404040"/>
<rect x="598" y="119" width="1" height="1" fill="#404040"/>
<rect x="601" y="119" width="2" height="1" fill="#404040"/>
<rect x="482" y="120" width="1" height="1" fill="#404040"/>
<rect x="604" y="120" width="1" height="1" fill="#404040"/>
<rect x="599" y="123" width="2" height="1" fill="#404040"/>
<rect x="498" y="124" width="1" height="1" fill="#404040"/>
<rect x="500" y="124" width="1" height="1" fill="#404040"/>
<rect x="532" y="124" width="1" height="1" fill="#404040"/>
<rect x="534" y="124" width="1" height="1" fill="#404040"/>
<rect x="544" y="124" width="1" height="1" fill="#404040"/>
<rect x="546" y="124" width="18" height="1" fill="#404040"/>
<rect x="572" y="124" width="21" height="1" fill="#404040"/>
<rect x="599" y="124" width="1" height="1" fill="#404040"/>
<rect x="601" y="124" width="3" height="1" fill="#404040"/>
<rect x="499" y="125" width="4" height="1" fill="#404040"/>
<rect x="518" y="125" width="7" height="1" fill="#404040"/>
<rect x="526" y="125" width="2" height="1" fill="#404040"/>
<rect x="535" y="125" width="2" height="1" fill="#404040"/>
<rect x="545" y="125" width="1" height="1" fill="#404040"/>
<rect x="547" y="125" width="2" height="1" fill="#404040"/>
<rect x="550" y="125" width="1" height="1" fill="#404040"/>
<rect x="555" y="125" width="2" height="1" fill="#404040"/>
<rect x="558" y="125" width="1" height="1" fill="#404040"/>
<rect x="560" y="125" width="5" height="1" fill="#404040"/>
<rect x="566" y="125" width="2" height="1" fill="#404040"/>
<rect x="569" y="125" width="2" height="1" fill="#404040"/>
<rect x="573" y="125" width="16" height="1" fill="#404040"/>
<rect x="599" y="125" width="1" height="1" fill="#404040"/>
<rect x="602" y="125" width="1" height="1" fill="#404040"/>
<rect x="496" y="126" width="13" height="1" fill="#404040"/>
<rect x="513" y="126" width="84" height="1" fill="#404040"/>
<rect x="598" y="126" width="4" height="1" fill="#404040"/>
<rect x="603" y="126" width="2" height="1" fill="#404040"/>
<rect x="499" y="127" width="7" height="1" fill="#404040"/>
<rect x="514" y="127" width="27" height="1" fill="#404040"/>
<rect x="542" y="127" width="1" height="1" fill="#404040"/>
<rect x="545" y="127" width="4" height="1" fill="#404040"/>
<rect x="556" y="127" width="1" height="1" fill="#404040"/>
<rect x="559" y="127" width="7" height="1" fill="#404040"/>
<rect x="571" y="127" width="21" height="1" fill="#404040"/>
<rect x="600" y="127" width="1" height="1" fill="#404040"/>
<rect x="602" y="127" width="2" height="1" fill="#404040"/>
<rect x="499" y="128" width="6" height="1" fill="#404040"/>
<rect x="513" y="128" width="30" height="1" fill="#404040"/>
<rect x="544" y="128" width="7" height="1" fill="#404040"/>
<rect x="562" y="128" width="1" height="1" fill="#404040"/>
<rect x="564" y="128" width="4" height="1" fill="#404040"/>
<rect x="582" y="128" width="5" height="1" fill="#404040"/>
<rect x="594" y="128" width="4" height="1" fill="#404040"/>
<rect x="600" y="128" width="1" height="1" fill="#404040"/>
<rect x="602" y="128" width="2" height="1" fill="#404040"/>
<rect x="483" y="129" width="3" height="1" fill="#404040"/>
<rect x="553" y="129" width="4" height="1" fill="#404040"/>
<rect x="597" y="129" width="1" height="1" fill="#404040"/>
<rect x="602" y="129" width="1" height="1" fill="#404040"/>
<rect x="483" y="130" width="2" height="1" fill="#404040"/>
<rect x="497" y="130" width="2" height="1" fill="#404040"/>
<rect x="512" y="130" width="1" height="1" fill="#404040"/>
<rect x="534" y="130" width="1" height="1" fill="#404040"/>
<rect x="546" y="130" width="1" height="1" fill="#404040"/>
<rect x="576" y="130" width="3" height="1" fill="#404040"/>
<rect x="584" y="130" width="1" height="1" fill="#404040"/>
<rect x="586" y="130" width="1" height="1" fill="#404040"/>
<rect x="589" y="130" width="4" height="1" fill="#404040"/>
<rect x="528" y="131" width="1" height="1" fill="#404040"/>
<rect x="530" y="131" width="1" height="1" fill="#404040"/>
<rect x="534" y="131" width="1" height="1" fill="#404040"/>
<rect x="545" y="131" width="1" height="1" fill="#404040"/>
<rect x="553" y="131" width="1" height="1" fill="#404040"/>
<rect x="591" y="131" width="1" height="1" fill="#404040"/>
<rect x="593" y="131" width="2" height="1" fill="#404040"/>
<rect x="597" y="131" width="2" height="1" fill="#404040"/>
<rect x="600" y="131" width="1" height="1" fill="#404040"/>
<rect x="496" y="132" width="1" height="1" fill="#404040"/>
<rect x="588" y="132" width="1" height="1" fill="#404040"/>
<rect x="484" y="118" width="2" height="1" fill="#204040"/>
<rect x="506" y="118" width="1" height="1" fill="#204040"/>
<rect x="512" y="118" width="2" height="1" fill="#204040"/>
<rect x="520" y="118" width="1" height="1" fill="#204040"/>
<rect x="528" y="118" width="1" height="1" fill="#204040"/>
<rect x="536" y="118" width="1" height="1" fill="#204040"/>
<rect x="545" y="118" width="1" height="1" fill="#204040"/>
<rect x="547" y="118" width="1" height="1" fill="#204040"/>
<rect x="551" y="118" width="1" height="1" fill="#204040"/>
<rect x="557" y="118" width="1" height="1" fill="#204040"/>
<rect x="562" y="118" width="1" height="1" fill="#204040"/>
<rect x="570" y="118" width="2" height="1" fill="#204040"/>
<rect x="497" y="119" width="1" height="1" fill="#204040"/>
<rect x="535" y="119" width="1" height="1" fill="#204040"/>
<rect x="551" y="119" width="1" height="1" fill="#204040"/>
<rect x="563" y="119" width="1" height="1" fill="#204040"/>
<rect x="565" y="119" width="1" height="1" fill="#204040"/>
<rect x="564" y="123" width="1" height="1" fill="#204040"/>
<rect x="602" y="123" width="1" height="1" fill="#204040"/>
<rect x="497" y="124" width="1" height="1" fill="#204040"/>
<rect x="499" y="124" width="1" height="1" fill="#204040"/>
<rect x="522" y="124" width="1" height="1" fill="#204040"/>
<rect x="564" y="124" width="3" height="1" fill="#204040"/>
<rect x="568" y="124" width="1" height="1" fill="#204040"/>
<rect x="571" y="124" width="1" height="1" fill="#204040"/>
<rect x="604" y="124" width="1" height="1" fill="#204040"/>
<rect x="498" y="125" width="1" height="1" fill="#204040"/>
<rect x="504" y="125" width="1" height="1" fill="#204040"/>
<rect x="568" y="125" width="1" height="1" fill="#204040"/>
<rect x="590" y="125" width="1" height="1" fill="#204040"/>
<rect x="597" y="126" width="1" height="1" fill="#204040"/>
<rect x="497" y="127" width="2" height="1" fill="#204040"/>
<rect x="554" y="127" width="1" height="1" fill="#204040"/>
<rect x="566" y="127" width="3" height="1" fill="#204040"/>
<rect x="570" y="127" width="1" height="1" fill="#204040"/>
<rect x="498" y="128" width="1" height="1" fill="#204040"/>
<rect x="505" y="128" width="1" height="1" fill="#204040"/>
<rect x="556" y="128" width="1" height="1" fill="#204040"/>
<rect x="560" y="128" width="2" height="1" fill="#204040"/>
<rect x="563" y="128" width="1" height="1" fill="#204040"/>
<rect x="568" y="128" width="1" height="1" fill="#204040"/>
<rect x="570" y="128" width="1" height="1" fill="#204040"/>
<rect x="485" y="130" width="2" height="1" fill="#204040"/>
<rect x="496" y="130" width="1" height="1" fill="#204040"/>
<rect x="500" y="130" width="1" height="1" fill="#204040"/>
<rect x="511" y="130" width="1" height="1" fill="#204040"/>
<rect x="513" y="130" width="2" height="1" fill="#204040"/>
<rect x="528" y="130" width="1" height="1" fill="#204040"/>
<rect x="544" y="130" width="2" height="1" fill="#204040"/>
<rect x="579" y="130" width="1" height="1" fill="#204040"/>
<rect x="603" y="130" width="1" height="1" fill="#204040"/>
<rect x="496" y="131" width="1" height="1" fill="#204040"/>
<rect x="499" y="131" width="1" height="1" fill="#204040"/>
<rect x="504" y="131" width="1" height="1" fill="#204040"/>
<rect x="510" y="131" width="1" height="1" fill="#204040"/>
<rect x="518" y="131" width="1" height="1" fill="#204040"/>
<rect x="527" y="131" width="1" height="1" fill="#204040"/>
<rect x="529" y="131" width="1" height="1" fill="#204040"/>
<rect x="532" y="131" width="1" height="1" fill="#204040"/>
<rect x="535" y="131" width="1" height="1" fill="#204040"/>
<rect x="540" y="131" width="1" height="1" fill="#204040"/>
<rect x="546" y="131" width="1" height="1" fill="#204040"/>
<rect x="588" y="131" width="1" height="1" fill="#204040"/>
<rect x="590" y="131" width="1" height="1" fill="#204040"/>
<rect x="502" y="132" width="1" height="1" fill="#204040"/>
<rect x="510" y="132" width="1" height="1" fill="#204040"/>
<rect x="516" y="132" width="1" height="1" fill="#204040"/>
<rect x="524" y="132" width="1" height="1" fill="#204040"/>
<rect x="528" y="132" width="1" height="1" fill="#204040"/>
<rect x="530" y="132" width="1" height="1" fill="#204040"/>
<rect x="532" y="132" width="1" height="1" fill="#204040"/>
<rect x="534" y="132" width="2" height="1" fill="#204040"/>
<rect x="537" y="132" width="2" height="1" fill="#204040"/>
<rect x="540" y="132" width="1" height="1" fill="#204040"/>
<rect x="580" y="132" width="1" height="1" fill="#204040"/>
<rect x="582" y="132" width="1" height="1" fill="#204040"/>
<rect x="486" y="118" width="1" height="1" fill="#204020"/>
<rect x="486" y="124" width="1" height="1" fill="#204020"/>
<rect x="528" y="124" width="1" height="1" fill="#204020"/>
<rect x="531" y="124" width="1" height="1" fill="#204020"/>
<rect x="538" y="124" width="1" height="1" fill="#204020"/>
<rect x="593" y="124" width="2" height="1" fill="#204020"/>
<rect x="484" y="126" width="2" height="1" fill="#204020"/>
<rect x="490" y="126" width="1" height="1" fill="#204020"/>
<rect x="492" y="126" width="1" height="1" fill="#204020"/>
<rect x="494" y="126" width="2" height="1" fill="#204020"/>
<rect x="509" y="126" width="2" height="1" fill="#204020"/>
<rect x="512" y="126" width="1" height="1" fill="#204020"/>
<rect x="554" y="128" width="1" height="1" fill="#204020"/>
<rect x="492" y="130" width="1" height="1" fill="#204020"/>
<rect x="550" y="131" width="1" height="1" fill="#204020"/>
<rect x="491" y="118" width="1" height="1" fill="#406060"/>
<rect x="558" y="118" width="1" height="1" fill="#406060"/>
<rect x="560" y="118" width="1" height="1" fill="#406060"/>
<rect x="568" y="118" width="1" height="1" fill="#406060"/>
<rect x="588" y="118" width="1" height="1" fill="#406060"/>
<rect x="528" y="119" width="2" height="1" fill="#406060"/>
<rect x="483" y="121" width="1" height="1" fill="#406060"/>
<rect x="490" y="121" width="2" height="1" fill="#406060"/>
<rect x="503" y="121" width="1" height="1" fill="#406060"/>
<rect x="508" y="121" width="1" height="1" fill="#406060"/>
<rect x="517" y="121" width="1" height="1" fill="#406060"/>
<rect x="600" y="124" width="1" height="1" fill="#406060"/>
<rect x="600" y="129" width="1" height="1" fill="#406060"/>
<rect x="515" y="118" width="1" height="1" fill="#202040"/>
<rect x="517" y="118" width="1" height="1" fill="#202040"/>
<rect x="539" y="118" width="1" height="1" fill="#202040"/>
<rect x="549" y="118" width="1" height="1" fill="#202040"/>
<rect x="552" y="118" width="1" height="1" fill="#202040"/>
<rect x="563" y="118" width="1" height="1" fill="#202040"/>
<rect x="579" y="118" width="1" height="1" fill="#202040"/>
<rect x="603" y="118" width="1" height="1" fill="#202040"/>
<rect x="492" y="119" width="4" height="1" fill="#202040"/>
<rect x="499" y="119" width="2" height="1" fill="#202040"/>
<rect x="506" y="119" width="1" height="1" fill="#202040"/>
<rect x="510" y="119" width="2" height="1" fill="#202040"/>
<rect x="515" y="119" width="2" height="1" fill="#202040"/>
<rect x="518" y="119" width="2" height="1" fill="#202040"/>
<rect x="537" y="119" width="3" height="1" fill="#202040"/>
<rect x="542" y="119" width="1" height="1" fill="#202040"/>
<rect x="553" y="119" width="1" height="1" fill="#202040"/>
<rect x="557" y="119" width="1" height="1" fill="#202040"/>
<rect x="579" y="119" width="3" height="1" fill="#202040"/>
<rect x="583" y="119" width="1" height="1" fill="#202040"/>
<rect x="597" y="119" width="1" height="1" fill="#202040"/>
<rect x="603" y="119" width="1" height="1" fill="#202040"/>
<rect x="482" y="121" width="1" height="1" fill="#202040"/>
<rect x="601" y="123" width="1" height="1" fill="#202040"/>
<rect x="501" y="124" width="1" height="1" fill="#202040"/>
<rect x="520" y="124" width="1" height="1" fill="#202040"/>
<rect x="545" y="124" width="1" height="1" fill="#202040"/>
<rect x="567" y="124" width="1" height="1" fill="#202040"/>
<rect x="569" y="124" width="1" height="1" fill="#202040"/>
<rect x="496" y="125" width="1" height="1" fill="#202040"/>
<rect x="503" y="125" width="1" height="1" fill="#202040"/>
<rect x="551" y="125" width="4" height="1" fill="#202040"/>
<rect x="557" y="125" width="1" height="1" fill="#202040"/>
<rect x="559" y="125" width="1" height="1" fill="#202040"/>
<rect x="565" y="125" width="1" height="1" fill="#202040"/>
<rect x="571" y="125" width="2" height="1" fill="#202040"/>
<rect x="600" y="125" width="1" height="1" fill="#202040"/>
<rect x="506" y="127" width="1" height="1" fill="#202040"/>
<rect x="513" y="127" width="1" height="1" fill="#202040"/>
<rect x="550" y="127" width="1" height="1" fill="#202040"/>
<rect x="557" y="127" width="2" height="1" fill="#202040"/>
<rect x="569" y="127" width="1" height="1" fill="#202040"/>
<rect x="601" y="127" width="1" height="1" fill="#202040"/>
<rect x="599" y="128" width="1" height="1" fill="#202040"/>
<rect x="601" y="128" width="1" height="1" fill="#202040"/>
<rect x="487" y="130" width="2" height="1" fill="#202040"/>
<rect x="495" y="130" width="1" height="1" fill="#202040"/>
<rect x="499" y="130" width="1" height="1" fill="#202040"/>
<rect x="518" y="130" width="2" height="1" fill="#202040"/>
<rect x="529" y="130" width="5" height="1" fill="#202040"/>
<rect x="535" y="130" width="1" height="1" fill="#202040"/>
<rect x="547" y="130" width="1" height="1" fill="#202040"/>
<rect x="553" y="130" width="1" height="1" fill="#202040"/>
<rect x="593" y="130" width="1" height="1" fill="#202040"/>
<rect x="512" y="131" width="1" height="1" fill="#202040"/>
<rect x="531" y="131" width="1" height="1" fill="#202040"/>
<rect x="533" y="131" width="1" height="1" fill="#202040"/>
<rect x="537" y="131" width="1" height="1" fill="#202040"/>
<rect x="585" y="131" width="1" height="1" fill="#202040"/>
<rect x="497" y="132" width="2" height="1" fill="#202040"/>
<rect x="527" y="132" width="1" height="1" fill="#202040"/>
<rect x="529" y="132" width="1" height="1" fill="#202040"/>
<rect x="531" y="132" width="1" height="1" fill="#202040"/>
<rect x="533" y="132" width="1" height="1" fill="#202040"/>
<rect x="539" y="132" width="1" height="1" fill="#202040"/>
<rect x="541" y="132" width="1" height="1" fill="#202040"/>
<rect x="581" y="132" width="1" height="1" fill="#202040"/>
<rect x="553" y="142" width="11" height="1" fill="#202040"/>
<rect x="566" y="118" width="1" height="1" fill="#404060"/>
<rect x="574" y="118" width="1" height="1" fill="#404060"/>
<rect x="576" y="118" width="1" height="1" fill="#404060"/>
<rect x="583" y="118" width="1" height="1" fill="#404060"/>
<rect x="589" y="118" width="2" height="1" fill="#404060"/>
<rect x="520" y="119" width="3" height="1" fill="#404060"/>
<rect x="526" y="119" width="2" height="1" fill="#404060"/>
<rect x="558" y="119" width="1" height="1" fill="#404060"/>
<rect x="504" y="121" width="4" height="1" fill="#404060"/>
<rect x="582" y="118" width="1" height="1" fill="#606060"/>
<rect x="597" y="118" width="2" height="1" fill="#606060"/>
<rect x="601" y="118" width="1" height="1" fill="#606060"/>
<rect x="483" y="120" width="6" height="1" fill="#606060"/>
<rect x="493" y="120" width="8" height="1" fill="#606060"/>
<rect x="503" y="120" width="17" height="1" fill="#606060"/>
<rect x="537" y="120" width="1" height="1" fill="#606060"/>
<rect x="551" y="120" width="1" height="1" fill="#606060"/>
<rect x="553" y="120" width="2" height="1" fill="#606060"/>
<rect x="484" y="121" width="6" height="1" fill="#606060"/>
<rect x="492" y="121" width="11" height="1" fill="#606060"/>
<rect x="509" y="121" width="8" height="1" fill="#606060"/>
<rect x="518" y="121" width="37" height="1" fill="#606060"/>
<rect x="565" y="121" width="6" height="1" fill="#606060"/>
<rect x="585" y="121" width="4" height="1" fill="#606060"/>
<rect x="597" y="121" width="8" height="1" fill="#606060"/>
<rect x="486" y="129" width="9" height="1" fill="#606060"/>
<rect x="503" y="129" width="9" height="1" fill="#606060"/>
<rect x="521" y="129" width="4" height="1" fill="#606060"/>
<rect x="530" y="129" width="1" height="1" fill="#606060"/>
<rect x="537" y="129" width="6" height="1" fill="#606060"/>
<rect x="549" y="129" width="4" height="1" fill="#606060"/>
<rect x="557" y="129" width="18" height="1" fill="#606060"/>
<rect x="591" y="129" width="1" height="1" fill="#606060"/>
<rect x="593" y="129" width="4" height="1" fill="#606060"/>
<rect x="598" y="129" width="2" height="1" fill="#606060"/>
<rect x="592" y="118" width="1" height="1" fill="#406040"/>
<rect x="594" y="118" width="1" height="1" fill="#406040"/>
<rect x="602" y="126" width="1" height="1" fill="#406040"/>
<rect x="601" y="129" width="1" height="1" fill="#406040"/>
<rect x="489" y="120" width="3" height="1" fill="#606080"/>
<rect x="501" y="120" width="2" height="1" fill="#606080"/>
<rect x="520" y="120" width="2" height="1" fill="#606080"/>
<rect x="535" y="120" width="2" height="1" fill="#606080"/>
<rect x="539" y="120" width="1" height="1" fill="#606080"/>
<rect x="549" y="120" width="2" height="1" fill="#606080"/>
<rect x="555" y="121" width="1" height="1" fill="#606080"/>
<rect x="557" y="121" width="1" height="1" fill="#606080"/>
<rect x="564" y="121" width="1" height="1" fill="#606080"/>
<rect x="571" y="121" width="5" height="1" fill="#606080"/>
<rect x="584" y="121" width="1" height="1" fill="#606080"/>
<rect x="589" y="121" width="8" height="1" fill="#606080"/>
<rect x="499" y="129" width="1" height="1" fill="#606080"/>
<rect x="543" y="129" width="1" height="1" fill="#606080"/>
<rect x="492" y="120" width="1" height="1" fill="#608080"/>
<rect x="522" y="120" width="1" height="1" fill="#608080"/>
<rect x="531" y="120" width="4" height="1" fill="#608080"/>
<rect x="538" y="120" width="1" height="1" fill="#608080"/>
<rect x="540" y="120" width="1" height="1" fill="#608080"/>
<rect x="565" y="120" width="3" height="1" fill="#608080"/>
<rect x="556" y="121" width="1" height="1" fill="#608080"/>
<rect x="558" y="121" width="2" height="1" fill="#608080"/>
<rect x="563" y="121" width="1" height="1" fill="#608080"/>
<rect x="583" y="121" width="1" height="1" fill="#608080"/>
<rect x="495" y="129" width="3" height="1" fill="#608080"/>
<rect x="501" y="129" width="1" height="1" fill="#608080"/>
<rect x="523" y="120" width="8" height="1" fill="#808080"/>
<rect x="541" y="120" width="8" height="1" fill="#808080"/>
<rect x="555" y="120" width="5" height="1" fill="#808080"/>
<rect x="563" y="120" width="2" height="1" fill="#808080"/>
<rect x="568" y="120" width="36" height="1" fill="#808080"/>
<rect x="560" y="121" width="3" height="1" fill="#808080"/>
<rect x="576" y="121" width="7" height="1" fill="#808080"/>
<rect x="498" y="129" width="1" height="1" fill="#808080"/>
<rect x="500" y="129" width="1" height="1" fill="#808080"/>
<rect x="512" y="129" width="9" height="1" fill="#808080"/>
<rect x="525" y="129" width="5" height="1" fill="#808080"/>
<rect x="531" y="129" width="6" height="1" fill="#808080"/>
<rect x="544" y="129" width="5" height="1" fill="#808080"/>
<rect x="575" y="129" width="16" height="1" fill="#808080"/>
<rect x="552" y="120" width="1" height="1" fill="#608060"/>
<rect x="502" y="129" width="1" height="1" fill="#608060"/>
<rect x="560" y="120" width="3" height="1" fill="#8080a0"/>
<rect x="540" y="124" width="1" height="1" fill="#404020"/>
<rect x="580" y="128" width="2" height="1" fill="#404020"/>
<rect x="517" y="125" width="1" height="1" fill="#402040"/>
<rect x="525" y="125" width="1" height="1" fill="#402040"/>
<rect x="528" y="125" width="3" height="1" fill="#402040"/>
<rect x="532" y="125" width="2" height="1" fill="#402040"/>
<rect x="538" y="125" width="2" height="1" fill="#402040"/>
<rect x="542" y="125" width="1" height="1" fill="#402040"/>
<rect x="541" y="127" width="1" height="1" fill="#402040"/>
<rect x="543" y="127" width="2" height="1" fill="#402040"/>
<rect x="549" y="127" width="1" height="1" fill="#402040"/>
<rect x="555" y="127" width="1" height="1" fill="#402040"/>
<rect x="543" y="128" width="1" height="1" fill="#402040"/>
<rect x="534" y="125" width="1" height="1" fill="#402020"/>
<rect x="541" y="125" width="1" height="1" fill="#402020"/>
<rect x="592" y="129" width="1" height="1" fill="#808060"/>
</svg>